<svg width="32" height="32" viewBox="0 0 32 32" fill="none" xmlns="http://www.w3.org/2000/svg">
<circle cx="16" cy="16" r="16" fill="#D9D9D9"/>
<path d="M9.1501 2.21884C7.60497 2.92755 7.36354 3.56294 7.36354 6.93543C7.36354 10.3323 7.60497 11.1388 8.8121 11.7742L9.53638 12.1652V14.5846V17.0284L4.78026 17.0773L0 17.1506L0.0724282 18.1037C0.217285 19.9122 1.32785 22.8448 2.55913 24.7021C4.80441 28.099 8.25682 30.5917 12.1921 31.6181C14.2442 32.1313 17.8656 32.1313 19.9178 31.5937C25.6396 30.0785 30.2991 25.3375 31.627 19.6922C32.2789 16.8574 32.4237 17.0284 29.092 17.0284H26.1949V14.2669C26.1949 12.7762 26.0983 11.4076 26.0017 11.261C25.7603 10.87 20.7386 7.25313 20.4489 7.25313C20.1833 7.25313 15.0651 10.8944 14.7995 11.2854C14.7029 11.4076 14.6064 12.7762 14.6064 14.2914V17.0529L12.7474 16.9796L10.8642 16.9062L10.7918 14.5602L10.7194 12.2141L11.4919 11.8964C12.8439 11.3099 13.1578 10.4545 13.1578 7.13093C13.1578 5.29806 13.0371 3.97839 12.8439 3.61182C12.1679 2.26771 10.4538 1.63232 9.1501 2.21884ZM11.3229 3.61182C11.9265 4.10059 11.9507 4.1739 11.9507 6.91099C11.9507 9.77027 11.7334 10.6745 11.1057 10.6745C10.816 10.6745 10.7435 10.259 10.7435 8.59723C10.7435 6.71548 10.6952 6.51998 10.2848 6.51998C9.75367 6.51998 9.60881 7.1065 9.6571 9.18375C9.6571 10.2346 9.58467 10.6745 9.36739 10.6745C8.78796 10.6745 8.57068 9.69695 8.57068 6.91099C8.57068 4.1739 8.59482 4.10059 9.19839 3.61182C9.56053 3.31856 10.0192 3.09862 10.2607 3.09862C10.5021 3.09862 10.9608 3.31856 11.3229 3.61182ZM22.8873 10.3324L25.0119 11.9208L24.9395 14.4135L24.867 16.9062H20.4006H15.9342V14.3402V11.7986L18.1071 10.259C19.3142 9.40369 20.4006 8.71942 20.5213 8.71942C20.6662 8.74386 21.7285 9.45257 22.8873 10.3324ZM4.58712 19.8877C5.57697 23.1136 7.53254 25.4597 10.309 26.7549C11.4919 27.2925 11.7092 27.488 11.6127 27.9035C11.5402 28.1723 11.4678 28.7588 11.4678 29.1743C11.4678 30.2251 11.1298 30.2007 9.05353 29.1254C5.86669 27.4147 3.11441 24.2133 1.93142 20.8164C1.03814 18.2259 1.06228 18.1282 2.70399 18.1282H4.05598L4.58712 19.8877ZM8.90867 19.8388C9.53638 21.1096 10.1882 22.0139 11.2022 22.9425C12.5784 24.2133 12.6025 24.2622 12.3369 25.0198C12.1921 25.4352 11.9989 25.8507 11.9265 25.9484C11.5885 26.2661 9.36739 24.9464 8.13611 23.7001C6.8324 22.4049 5.84254 20.5476 5.55283 18.9591L5.38383 18.1037L6.71168 18.0548L8.03953 18.0304L8.90867 19.8388ZM12.9888 19.7655L14.0994 21.4029L13.6889 22.1605C13.4717 22.5515 13.2061 22.8936 13.1095 22.8936C12.3852 22.8936 9.53638 19.2523 9.53638 18.3481C9.53638 18.177 9.97095 18.0793 10.7194 18.1037C11.8782 18.1282 11.9024 18.1282 12.9888 19.7655ZM16.3205 19.1546C15.7169 19.7167 15.1134 20.181 14.9685 20.181C14.7029 20.2054 13.3509 18.3725 13.5199 18.2015C13.5682 18.1526 14.4856 18.1037 15.5238 18.1037L17.4311 18.1282L16.3205 19.1546ZM24.022 18.2259C24.022 18.2992 23.5633 18.6414 23.0322 18.9835C21.6078 19.8633 19.1211 22.6004 18.1553 24.4088C17.4069 25.7529 16.5861 28.1723 16.1756 30.2984C16.0308 30.9827 16.0066 31.0071 14.7754 30.8361C12.6749 30.5673 12.6749 30.5673 12.6749 29.3209C12.6749 26.706 14.0994 23.1869 16.0066 21.1096C17.3828 19.6433 18.4933 18.8857 20.0626 18.4214C21.1973 18.0793 24.022 17.9571 24.022 18.2259ZM30.6371 18.4459C30.613 18.6169 30.5889 18.8858 30.5889 19.0813C30.5647 19.2523 30.1784 19.5456 29.768 19.7411C26.0017 21.2563 22.7666 24.8487 20.9318 29.5408C20.7145 30.054 20.4248 30.2496 19.3866 30.4695C17.3345 30.9338 17.2862 30.8849 17.6483 29.0032C18.5416 24.6532 22.3562 20.0588 26.4122 18.4703C27.6917 17.9815 30.6854 17.9571 30.6371 18.4459ZM29.6956 21.5984C29.43 22.7226 27.9573 24.9464 26.6053 26.315C25.3257 27.6102 22.5976 29.5897 22.3803 29.3698C22.0906 29.101 23.9496 25.924 25.1809 24.5554C26.2673 23.3824 29.2852 21.0119 29.7922 20.9386C29.8404 20.9386 29.7922 21.2318 29.6956 21.5984Z" fill="black"/>
<path d="M11.3229 3.61182C11.9265 4.10059 11.9507 4.1739 11.9507 6.91099C11.9507 9.77027 11.7334 10.6745 11.1057 10.6745C10.816 10.6745 10.7435 10.259 10.7435 8.59723C10.7435 6.71548 10.6952 6.51998 10.2848 6.51998C9.75367 6.51998 9.60881 7.1065 9.6571 9.18375C9.6571 10.2346 9.58467 10.6745 9.36739 10.6745C8.78796 10.6745 8.57068 9.69695 8.57068 6.91099C8.57068 4.1739 8.59482 4.10059 9.19839 3.61182C9.56053 3.31856 10.0192 3.09862 10.2607 3.09862C10.5021 3.09862 10.9608 3.31856 11.3229 3.61182Z" fill="#429F3A"/>
</svg>
