<svg width="160" height="60" viewBox="0 0 160 60" fill="none" xmlns="http://www.w3.org/2000/svg">
<path d="M154.763 28.7334C153.745 28.7334 152.84 28.5223 152.047 28.1C151.266 27.6777 150.644 27.1029 150.183 26.3756C149.733 25.6366 149.508 24.7979 149.508 23.8594C149.508 22.9093 149.733 22.0706 150.183 21.3433C150.644 20.6043 151.266 20.0295 152.047 19.6189C152.84 19.1966 153.745 18.9855 154.763 18.9855C155.769 18.9855 156.668 19.1966 157.461 19.6189C158.254 20.0295 158.876 20.5984 159.325 21.3257C159.775 22.053 160 22.8976 160 23.8594C160 24.7979 159.775 25.6366 159.325 26.3756C158.876 27.1029 158.254 27.6777 157.461 28.1C156.668 28.5223 155.769 28.7334 154.763 28.7334ZM154.763 26.4812C155.224 26.4812 155.639 26.3756 156.006 26.1645C156.372 25.9533 156.662 25.6542 156.875 25.2671C157.089 24.8683 157.195 24.399 157.195 23.8594C157.195 23.3081 157.089 22.8389 156.875 22.4518C156.662 22.0647 156.372 21.7656 156.006 21.5544C155.639 21.3433 155.224 21.2377 154.763 21.2377C154.301 21.2377 153.887 21.3433 153.52 21.5544C153.153 21.7656 152.857 22.0647 152.633 22.4518C152.42 22.8389 152.313 23.3081 152.313 23.8594C152.313 24.399 152.42 24.8683 152.633 25.2671C152.857 25.6542 153.153 25.9533 153.52 26.1645C153.887 26.3756 154.301 26.4812 154.763 26.4812Z" fill="white"/>
<path d="M146.704 28.7335C145.579 28.7335 144.704 28.452 144.076 27.8889C143.449 27.3141 143.135 26.4637 143.135 25.3376V17.0325H145.905V25.3024C145.905 25.7012 146.011 26.0121 146.224 26.235C146.437 26.4461 146.727 26.5517 147.094 26.5517C147.532 26.5517 147.905 26.4344 148.213 26.1998L148.958 28.1353C148.674 28.3347 148.331 28.4872 147.929 28.5928C147.538 28.6866 147.13 28.7335 146.704 28.7335ZM141.662 21.449V19.3375H148.284V21.449H141.662Z" fill="white"/>
<path d="M129.58 28.7337C128.68 28.7337 127.87 28.5342 127.148 28.1354C126.426 27.7249 125.852 27.1559 125.426 26.4286C125.011 25.7014 124.804 24.845 124.804 23.8597C124.804 22.8626 125.011 22.0004 125.426 21.2731C125.852 20.5459 126.426 19.9828 127.148 19.584C127.87 19.1851 128.68 18.9857 129.58 18.9857C130.385 18.9857 131.089 19.1617 131.692 19.5136C132.296 19.8655 132.763 20.3992 133.095 21.1148C133.426 21.8303 133.592 22.7453 133.592 23.8597C133.592 24.9623 133.432 25.8773 133.113 26.6046C132.793 27.3202 132.331 27.8539 131.728 28.2058C131.136 28.5577 130.42 28.7337 129.58 28.7337ZM130.059 26.4814C130.509 26.4814 130.917 26.3759 131.284 26.1647C131.651 25.9536 131.941 25.6544 132.154 25.2673C132.379 24.8685 132.491 24.3993 132.491 23.8597C132.491 23.3084 132.379 22.8391 132.154 22.452C131.941 22.0649 131.651 21.7658 131.284 21.5547C130.917 21.3435 130.509 21.238 130.059 21.238C129.597 21.238 129.183 21.3435 128.816 21.5547C128.449 21.7658 128.154 22.0649 127.929 22.452C127.716 22.8391 127.609 23.3084 127.609 23.8597C127.609 24.3993 127.716 24.8685 127.929 25.2673C128.154 25.6544 128.449 25.9536 128.816 26.1647C129.183 26.3759 129.597 26.4814 130.059 26.4814ZM132.562 28.5929V26.6574L132.615 23.8421L132.438 21.0444V15.537H135.207V28.5929H132.562Z" fill="white"/>
<path d="M120.139 28.5929V15.537H122.908V28.5929H120.139Z" fill="white"/>
<path d="M113.679 28.7334C112.591 28.7334 111.632 28.5223 110.803 28.1C109.987 27.6777 109.354 27.1029 108.904 26.3756C108.454 25.6366 108.229 24.7979 108.229 23.8594C108.229 22.9093 108.448 22.0706 108.886 21.3433C109.336 20.6043 109.945 20.0295 110.715 19.6189C111.484 19.1966 112.354 18.9855 113.324 18.9855C114.259 18.9855 115.1 19.1849 115.845 19.5837C116.603 19.9708 117.2 20.5339 117.638 21.2729C118.076 22.0002 118.295 22.8741 118.295 23.8946C118.295 24.0002 118.289 24.1234 118.277 24.2641C118.266 24.3932 118.254 24.5163 118.242 24.6336H110.484V23.0325H116.786L115.721 23.5075C115.721 23.0149 115.62 22.5867 115.419 22.2231C115.218 21.8594 114.94 21.5779 114.585 21.3785C114.23 21.1673 113.815 21.0617 113.342 21.0617C112.869 21.0617 112.449 21.1673 112.082 21.3785C111.727 21.5779 111.448 21.8653 111.247 22.2407C111.046 22.6043 110.945 23.0383 110.945 23.5427V23.965C110.945 24.4812 111.058 24.9386 111.283 25.3375C111.519 25.7246 111.845 26.0237 112.259 26.2348C112.685 26.4343 113.182 26.534 113.75 26.534C114.259 26.534 114.703 26.4577 115.082 26.3052C115.472 26.1527 115.827 25.924 116.147 25.619L117.621 27.2026C117.183 27.6953 116.632 28.0765 115.969 28.3463C115.307 28.6044 114.543 28.7334 113.679 28.7334Z" fill="white"/>
<path d="M103.6 28.5927V19.1263H106.369V28.5927H103.6ZM104.984 17.8066C104.476 17.8066 104.061 17.66 103.742 17.3667C103.422 17.0735 103.262 16.7098 103.262 16.2758C103.262 15.8418 103.422 15.4781 103.742 15.1849C104.061 14.8916 104.476 14.745 104.984 14.745C105.493 14.745 105.908 14.8858 106.227 15.1673C106.547 15.4371 106.707 15.789 106.707 16.223C106.707 16.6805 106.547 17.0617 106.227 17.3667C105.919 17.66 105.505 17.8066 104.984 17.8066Z" fill="white"/>
<path d="M95.12 21.8186H101.085V24.106H95.12V21.8186ZM95.333 28.5929H92.457V16.276H101.848V18.5634H95.333V28.5929Z" fill="white"/>
<path d="M124.891 42.4201L124.962 39.0769L129.418 34.8892H132.72L128.442 39.2001L127.004 40.3614L124.891 42.4201ZM122.601 44.3556V31.2997H125.37V44.3556H122.601ZM129.72 44.3556L126.489 40.379L128.228 38.2499L133.075 44.3556H129.72Z" fill="white"/>
<path d="M115.007 44.3558V34.8894H117.652V37.5639L117.28 36.7897C117.564 36.1211 118.019 35.6167 118.647 35.2765C119.274 34.9246 120.037 34.7487 120.937 34.7487V37.2824C120.818 37.2707 120.712 37.2648 120.617 37.2648C120.523 37.2531 120.422 37.2472 120.315 37.2472C119.558 37.2472 118.943 37.4642 118.469 37.8983C118.008 38.3206 117.777 38.9833 117.777 39.8866V44.3558H115.007Z" fill="white"/>
<path d="M107.919 44.4966C106.901 44.4966 105.996 44.2855 105.203 43.8632C104.422 43.4409 103.8 42.8661 103.339 42.1388C102.889 41.3998 102.664 40.5611 102.664 39.6226C102.664 38.6725 102.889 37.8337 103.339 37.1065C103.8 36.3674 104.422 35.7927 105.203 35.3821C105.996 34.9598 106.901 34.7487 107.919 34.7487C108.925 34.7487 109.824 34.9598 110.617 35.3821C111.41 35.7927 112.032 36.3616 112.481 37.0889C112.931 37.8162 113.156 38.6607 113.156 39.6226C113.156 40.5611 112.931 41.3998 112.481 42.1388C112.032 42.8661 111.41 43.4409 110.617 43.8632C109.824 44.2855 108.925 44.4966 107.919 44.4966ZM107.919 42.2444C108.38 42.2444 108.795 42.1388 109.162 41.9276C109.528 41.7165 109.818 41.4174 110.031 41.0303C110.245 40.6314 110.351 40.1622 110.351 39.6226C110.351 39.0713 110.245 38.6021 110.031 38.215C109.818 37.8279 109.528 37.5288 109.162 37.3176C108.795 37.1065 108.38 37.0009 107.919 37.0009C107.457 37.0009 107.043 37.1065 106.676 37.3176C106.309 37.5288 106.013 37.8279 105.789 38.215C105.576 38.6021 105.469 39.0713 105.469 39.6226C105.469 40.1622 105.576 40.6314 105.789 41.0303C106.013 41.4174 106.309 41.7165 106.676 41.9276C107.043 42.1388 107.457 42.2444 107.919 42.2444Z" fill="white"/>
<path d="M95.12 37.5812H101.085V39.8686H95.12V37.5812ZM95.333 44.3555H92.457V32.0386H101.848V34.326H95.333V44.3555Z" fill="white"/>
<path d="M18.6898 0.43768C15.5337 1.8551 15.0406 3.12589 15.0406 9.87085C15.0406 16.6647 15.5337 18.2776 17.9994 19.5484L19.4788 20.3304V25.1692V30.0569L9.76407 30.1546L0 30.3013L0.14794 32.2075C0.443821 35.8243 2.71224 41.6895 5.22723 45.4041C9.81338 52.198 16.8652 57.1834 24.9033 59.2362C29.095 60.2626 36.492 60.2626 40.6836 59.1873C52.3709 56.157 61.8884 46.6749 64.6007 35.3844C65.9321 29.7147 66.228 30.0569 59.4227 30.0569H53.5051V24.5338C53.5051 21.5524 53.3079 18.8153 53.1106 18.522C52.6175 17.74 42.3603 10.5063 41.7685 10.5063C41.2261 10.5063 30.7716 17.7889 30.2292 18.5709C30.0319 18.8153 29.8347 21.5524 29.8347 24.5827V30.1058L26.0375 29.9591L22.1911 29.8125L22.0431 25.1203L21.8952 20.4282L23.4732 19.7928C26.2348 18.6198 26.8758 16.9091 26.8758 10.2619C26.8758 6.59612 26.6293 3.95679 26.2348 3.22364C24.854 0.53543 21.3527 -0.735358 18.6898 0.43768ZM23.128 3.22364C24.3609 4.20117 24.4102 4.3478 24.4102 9.82198C24.4102 15.5405 23.9664 17.349 22.6842 17.349C22.0924 17.349 21.9445 16.5181 21.9445 13.1945C21.9445 9.43097 21.8459 9.03995 21.0075 9.03995C19.9226 9.03995 19.6268 10.213 19.7254 14.3675C19.7254 16.4692 19.5775 17.349 19.1336 17.349C17.9501 17.349 17.5063 15.3939 17.5063 9.82198C17.5063 4.3478 17.5556 4.20117 18.7884 3.22364C19.5281 2.63712 20.4651 2.19723 20.9582 2.19723C21.4514 2.19723 22.3883 2.63712 23.128 3.22364ZM46.7492 16.6647L51.0888 19.8417L50.9408 24.8271L50.7929 29.8125H41.6699H32.5469V24.6805V19.5973L36.9851 16.5181C39.4508 14.8074 41.6699 13.4388 41.9165 13.4388C42.2123 13.4877 44.3821 14.9051 46.7492 16.6647ZM9.36956 35.7754C11.3914 42.2271 15.3858 46.9193 21.0569 49.5098C23.4732 50.585 23.917 50.9761 23.7198 51.807C23.5718 52.3446 23.4239 53.5176 23.4239 54.3485C23.4239 56.4502 22.7335 56.4014 18.4926 54.2508C11.9832 50.8294 6.36144 44.4266 3.94508 37.6328C2.12048 32.4518 2.16979 32.2563 5.52311 32.2563H8.28467L9.36956 35.7754ZM18.1967 35.6777C19.4788 38.2193 20.8103 40.0277 22.8815 41.885C25.6923 44.4266 25.7416 44.5243 25.1992 46.0395C24.9033 46.8704 24.5088 47.7013 24.3609 47.8968C23.6705 48.5322 19.1336 45.8929 16.6186 43.4002C13.9557 40.8097 11.9339 37.0951 11.3421 33.9181L10.9969 32.2075L13.7091 32.1097L16.4214 32.0608L18.1967 35.6777ZM26.5307 35.5311L28.7991 38.8058L27.9607 40.321C27.5169 41.103 26.9745 41.7873 26.7772 41.7873C25.2978 41.7873 19.4788 34.5047 19.4788 32.6962C19.4788 32.3541 20.3665 32.1586 21.8952 32.2075C24.2622 32.2563 24.3115 32.2563 26.5307 35.5311ZM33.3359 34.3091C32.1031 35.4333 30.8702 36.362 30.5744 36.362C30.0319 36.4108 27.2704 32.7451 27.6156 32.403C27.7142 32.3052 29.5881 32.2075 31.7086 32.2075L35.6043 32.2563L33.3359 34.3091ZM49.0669 32.4518C49.0669 32.5985 48.13 33.2827 47.0451 33.967C44.1356 35.7266 39.0563 41.2007 37.0837 44.8176C35.555 47.5058 33.8784 52.3446 33.04 56.5969C32.7442 57.9654 32.6948 58.0143 30.1799 57.6721C25.8896 57.1345 25.8896 57.1345 25.8896 54.6418C25.8896 49.412 28.7991 42.3738 32.6948 38.2193C35.5057 35.2867 37.7741 33.7715 40.9795 32.8428C43.2972 32.1586 49.0669 31.9142 49.0669 32.4518ZM62.5788 32.8917C62.5295 33.2339 62.4802 33.7715 62.4802 34.1625C62.4309 34.5047 61.6419 35.0912 60.8035 35.4822C53.1106 38.5125 46.5026 45.6974 42.7548 55.0817C42.311 56.1081 41.7192 56.4991 39.5987 56.939C35.4071 57.8677 35.3085 57.7699 36.0482 54.0064C37.8728 45.3064 45.6643 36.1176 53.9489 32.9406C56.5626 31.9631 62.6774 31.9142 62.5788 32.8917ZM60.6556 39.1968C60.1131 41.4451 57.105 45.8929 54.3435 48.63C51.7298 51.2204 46.1574 55.1794 45.7136 54.7396C45.1218 54.2019 48.919 47.848 51.434 45.1109C53.6531 42.7648 59.8173 38.0238 60.8528 37.8771C60.9515 37.8771 60.8528 38.4637 60.6556 39.1968Z" fill="white"/>
<path d="M23.128 3.22364C24.3609 4.20117 24.4102 4.3478 24.4102 9.82198C24.4102 15.5405 23.9664 17.349 22.6842 17.349C22.0924 17.349 21.9445 16.5181 21.9445 13.1945C21.9445 9.43097 21.8459 9.03995 21.0075 9.03995C19.9226 9.03995 19.6268 10.213 19.7254 14.3675C19.7254 16.4692 19.5775 17.349 19.1336 17.349C17.9501 17.349 17.5063 15.3939 17.5063 9.82198C17.5063 4.3478 17.5556 4.20117 18.7884 3.22364C19.5281 2.63712 20.4651 2.19723 20.9582 2.19723C21.4514 2.19723 22.3883 2.63712 23.128 3.22364Z" fill="#429F3A"/>
<rect x="75.4497" y="2.19946" width="3.32866" height="55.7193" rx="1.66433" fill="white"/>
</svg>
