<svg width="160" height="61" viewBox="0 0 160 61" fill="none" xmlns="http://www.w3.org/2000/svg">
<path d="M154.763 29.0463C153.745 29.0463 152.84 28.8351 152.047 28.4128C151.266 27.9905 150.644 27.4158 150.183 26.6885C149.733 25.9495 149.508 25.1107 149.508 24.1723C149.508 23.2222 149.733 22.3834 150.183 21.6561C150.644 20.9171 151.266 20.3423 152.047 19.9318C152.84 19.5095 153.745 19.2983 154.763 19.2983C155.769 19.2983 156.668 19.5095 157.461 19.9318C158.254 20.3423 158.876 20.9113 159.325 21.6385C159.775 22.3658 160 23.2104 160 24.1723C160 25.1107 159.775 25.9495 159.325 26.6885C158.876 27.4158 158.254 27.9905 157.461 28.4128C156.668 28.8351 155.769 29.0463 154.763 29.0463ZM154.763 26.7941C155.224 26.7941 155.639 26.6885 156.006 26.4773C156.372 26.2662 156.662 25.9671 156.875 25.58C157.089 25.1811 157.195 24.7119 157.195 24.1723C157.195 23.621 157.089 23.1518 156.875 22.7647C156.662 22.3776 156.372 22.0784 156.006 21.8673C155.639 21.6561 155.224 21.5506 154.763 21.5506C154.301 21.5506 153.887 21.6561 153.52 21.8673C153.153 22.0784 152.857 22.3776 152.633 22.7647C152.42 23.1518 152.313 23.621 152.313 24.1723C152.313 24.7119 152.42 25.1811 152.633 25.58C152.857 25.9671 153.153 26.2662 153.52 26.4773C153.887 26.6885 154.301 26.7941 154.763 26.7941Z" fill="black"/>
<path d="M146.704 29.0464C145.579 29.0464 144.704 28.7649 144.076 28.2018C143.449 27.627 143.135 26.7766 143.135 25.6504V17.3453H145.905V25.6153C145.905 26.0141 146.011 26.3249 146.224 26.5478C146.437 26.759 146.727 26.8645 147.094 26.8645C147.532 26.8645 147.905 26.7472 148.213 26.5126L148.958 28.4481C148.674 28.6476 148.331 28.8 147.929 28.9056C147.538 28.9995 147.13 29.0464 146.704 29.0464ZM141.662 21.7618V19.6504H148.284V21.7618H141.662Z" fill="black"/>
<path d="M129.58 29.0465C128.68 29.0465 127.87 28.8471 127.148 28.4483C126.426 28.0377 125.852 27.4688 125.426 26.7415C125.011 26.0142 124.804 25.1579 124.804 24.1726C124.804 23.1755 125.011 22.3133 125.426 21.586C125.852 20.8587 126.426 20.2957 127.148 19.8968C127.87 19.498 128.68 19.2986 129.58 19.2986C130.385 19.2986 131.089 19.4745 131.692 19.8265C132.296 20.1784 132.763 20.7121 133.095 21.4276C133.426 22.1432 133.592 23.0582 133.592 24.1726C133.592 25.2752 133.432 26.1902 133.113 26.9175C132.793 27.633 132.331 28.1668 131.728 28.5187C131.136 28.8706 130.42 29.0465 129.58 29.0465ZM130.059 26.7943C130.509 26.7943 130.917 26.6887 131.284 26.4776C131.651 26.2664 131.941 25.9673 132.154 25.5802C132.379 25.1814 132.491 24.7122 132.491 24.1726C132.491 23.6212 132.379 23.152 132.154 22.7649C131.941 22.3778 131.651 22.0787 131.284 21.8675C130.917 21.6564 130.509 21.5508 130.059 21.5508C129.597 21.5508 129.183 21.6564 128.816 21.8675C128.449 22.0787 128.154 22.3778 127.929 22.7649C127.716 23.152 127.609 23.6212 127.609 24.1726C127.609 24.7122 127.716 25.1814 127.929 25.5802C128.154 25.9673 128.449 26.2664 128.816 26.4776C129.183 26.6887 129.597 26.7943 130.059 26.7943ZM132.562 28.9058V26.9703L132.615 24.155L132.438 21.3573V15.8499H135.207V28.9058H132.562Z" fill="black"/>
<path d="M120.139 28.9058V15.8499H122.908V28.9058H120.139Z" fill="black"/>
<path d="M113.679 29.0463C112.591 29.0463 111.632 28.8351 110.803 28.4128C109.987 27.9905 109.354 27.4158 108.904 26.6885C108.454 25.9495 108.229 25.1107 108.229 24.1723C108.229 23.2222 108.448 22.3834 108.886 21.6561C109.336 20.9171 109.945 20.3423 110.715 19.9318C111.484 19.5095 112.354 19.2983 113.324 19.2983C114.259 19.2983 115.1 19.4978 115.845 19.8966C116.603 20.2837 117.2 20.8467 117.638 21.5858C118.076 22.313 118.295 23.187 118.295 24.2075C118.295 24.3131 118.289 24.4362 118.277 24.577C118.266 24.706 118.254 24.8292 118.242 24.9465H110.484V23.3453H116.786L115.721 23.8204C115.721 23.3277 115.62 22.8996 115.419 22.5359C115.218 22.1723 114.94 21.8908 114.585 21.6913C114.23 21.4802 113.815 21.3746 113.342 21.3746C112.869 21.3746 112.449 21.4802 112.082 21.6913C111.727 21.8908 111.448 22.1781 111.247 22.5535C111.046 22.9172 110.945 23.3512 110.945 23.8556V24.2779C110.945 24.794 111.058 25.2515 111.283 25.6503C111.519 26.0374 111.845 26.3366 112.259 26.5477C112.685 26.7471 113.182 26.8468 113.75 26.8468C114.259 26.8468 114.703 26.7706 115.082 26.6181C115.472 26.4656 115.827 26.2369 116.147 25.9319L117.621 27.5155C117.183 28.0081 116.632 28.3894 115.969 28.6592C115.307 28.9172 114.543 29.0463 113.679 29.0463Z" fill="black"/>
<path d="M103.6 28.9056V19.4392H106.369V28.9056H103.6ZM104.984 18.1195C104.476 18.1195 104.061 17.9729 103.742 17.6796C103.422 17.3863 103.262 17.0227 103.262 16.5887C103.262 16.1547 103.422 15.791 103.742 15.4978C104.061 15.2045 104.476 15.0579 104.984 15.0579C105.493 15.0579 105.908 15.1986 106.227 15.4802C106.547 15.75 106.707 16.1019 106.707 16.5359C106.707 16.9934 106.547 17.3746 106.227 17.6796C105.919 17.9729 105.505 18.1195 104.984 18.1195Z" fill="black"/>
<path d="M95.12 22.1315H101.085V24.4189H95.12V22.1315ZM95.333 28.9058H92.457V16.5889H101.848V18.8763H95.333V28.9058Z" fill="black"/>
<path d="M124.891 42.7328L124.962 39.3897L129.418 35.2019H132.72L128.442 39.5128L127.004 40.6741L124.891 42.7328ZM122.601 44.6683V31.6124H125.37V44.6683H122.601ZM129.72 44.6683L126.489 40.6917L128.228 38.5627L133.075 44.6683H129.72Z" fill="black"/>
<path d="M115.007 44.6686V35.2022H117.652V37.8767L117.28 37.1025C117.564 36.4339 118.019 35.9294 118.647 35.5893C119.274 35.2374 120.037 35.0614 120.937 35.0614V37.5952C120.818 37.5834 120.712 37.5776 120.617 37.5776C120.523 37.5658 120.422 37.56 120.315 37.56C119.558 37.56 118.943 37.777 118.469 38.211C118.008 38.6333 117.777 39.2961 117.777 40.1993V44.6686H115.007Z" fill="black"/>
<path d="M107.919 44.8093C106.901 44.8093 105.996 44.5982 105.203 44.1759C104.422 43.7536 103.8 43.1788 103.339 42.4515C102.889 41.7125 102.664 40.8738 102.664 39.9354C102.664 38.9852 102.889 38.1465 103.339 37.4192C103.8 36.6802 104.422 36.1054 105.203 35.6948C105.996 35.2725 106.901 35.0614 107.919 35.0614C108.925 35.0614 109.824 35.2725 110.617 35.6948C111.41 36.1054 112.032 36.6743 112.481 37.4016C112.931 38.1289 113.156 38.9735 113.156 39.9354C113.156 40.8738 112.931 41.7125 112.481 42.4515C112.032 43.1788 111.41 43.7536 110.617 44.1759C109.824 44.5982 108.925 44.8093 107.919 44.8093ZM107.919 42.5571C108.38 42.5571 108.795 42.4515 109.162 42.2404C109.528 42.0292 109.818 41.7301 110.031 41.343C110.245 40.9442 110.351 40.475 110.351 39.9354C110.351 39.384 110.245 38.9148 110.031 38.5277C109.818 38.1406 109.528 37.8415 109.162 37.6304C108.795 37.4192 108.38 37.3136 107.919 37.3136C107.457 37.3136 107.043 37.4192 106.676 37.6304C106.309 37.8415 106.013 38.1406 105.789 38.5277C105.576 38.9148 105.469 39.384 105.469 39.9354C105.469 40.475 105.576 40.9442 105.789 41.343C106.013 41.7301 106.309 42.0292 106.676 42.2404C107.043 42.4515 107.457 42.5571 107.919 42.5571Z" fill="black"/>
<path d="M95.12 37.8939H101.085V40.1813H95.12V37.8939ZM95.333 44.6682H92.457V32.3513H101.848V34.6387H95.333V44.6682Z" fill="black"/>
<path d="M18.6898 0.750546C15.5337 2.16797 15.0406 3.43875 15.0406 10.1837C15.0406 16.9776 15.5337 18.5905 17.9994 19.8613L19.4788 20.6433V25.4821V30.3697L9.76407 30.4675L0 30.6141L0.14794 32.5203C0.443821 36.1372 2.71224 42.0024 5.22723 45.717C9.81338 52.5108 16.8652 57.4962 24.9033 59.5491C29.095 60.5755 36.492 60.5755 40.6836 59.5002C52.3709 56.4698 61.8884 46.9878 64.6007 35.6973C65.9321 30.0276 66.228 30.3697 59.4227 30.3697H53.5051V24.8467C53.5051 21.8652 53.3079 19.1281 53.1106 18.8349C52.6175 18.0529 42.3603 10.8191 41.7685 10.8191C41.2261 10.8191 30.7716 18.1017 30.2292 18.8838C30.0319 19.1281 29.8347 21.8652 29.8347 24.8956V30.4186L26.0375 30.272L22.1911 30.1254L22.0431 25.4332L21.8952 20.7411L23.4732 20.1057C26.2348 18.9326 26.8758 17.2219 26.8758 10.5747C26.8758 6.90899 26.6293 4.26966 26.2348 3.53651C24.854 0.848296 21.3527 -0.422492 18.6898 0.750546ZM23.128 3.53651C24.3609 4.51404 24.4102 4.66067 24.4102 10.1348C24.4102 15.8534 23.9664 17.6618 22.6842 17.6618C22.0924 17.6618 21.9445 16.8309 21.9445 13.5073C21.9445 9.74383 21.8459 9.35282 21.0075 9.35282C19.9226 9.35282 19.6268 10.5259 19.7254 14.6804C19.7254 16.7821 19.5775 17.6618 19.1336 17.6618C17.9501 17.6618 17.5063 15.7068 17.5063 10.1348C17.5063 4.66067 17.5556 4.51404 18.7884 3.53651C19.5281 2.94999 20.4651 2.5101 20.9582 2.5101C21.4514 2.5101 22.3883 2.94999 23.128 3.53651ZM46.7492 16.9776L51.0888 20.1545L50.9408 25.14L50.7929 30.1254H41.6699H32.5469V24.9933V19.9102L36.9851 16.8309C39.4508 15.1203 41.6699 13.7517 41.9165 13.7517C42.2123 13.8006 44.3821 15.218 46.7492 16.9776ZM9.36956 36.0883C11.3914 42.54 15.3858 47.2322 21.0569 49.8226C23.4732 50.8979 23.917 51.2889 23.7198 52.1198C23.5718 52.6575 23.4239 53.8305 23.4239 54.6614C23.4239 56.7631 22.7335 56.7142 18.4926 54.5637C11.9832 51.1423 6.36144 44.7395 3.94508 37.9456C2.12048 32.7647 2.16979 32.5692 5.52311 32.5692H8.28467L9.36956 36.0883ZM18.1967 35.9906C19.4788 38.5321 20.8103 40.3406 22.8815 42.1979C25.6923 44.7395 25.7416 44.8372 25.1992 46.3524C24.9033 47.1833 24.5088 48.0142 24.3609 48.2097C23.6705 48.8451 19.1336 46.2058 16.6186 43.7131C13.9557 41.1226 11.9339 37.408 11.3421 34.231L10.9969 32.5203L13.7091 32.4226L16.4214 32.3737L18.1967 35.9906ZM26.5307 35.8439L28.7991 39.1187L27.9607 40.6338C27.5169 41.4159 26.9745 42.1001 26.7772 42.1001C25.2978 42.1001 19.4788 34.8175 19.4788 33.0091C19.4788 32.6669 20.3665 32.4714 21.8952 32.5203C24.2622 32.5692 24.3115 32.5692 26.5307 35.8439ZM33.3359 34.622C32.1031 35.7462 30.8702 36.6748 30.5744 36.6748C30.0319 36.7237 27.2704 33.058 27.6156 32.7158C27.7142 32.6181 29.5881 32.5203 31.7086 32.5203L35.6043 32.5692L33.3359 34.622ZM49.0669 32.7647C49.0669 32.9113 48.13 33.5956 47.0451 34.2799C44.1356 36.0394 39.0563 41.5136 37.0837 45.1305C35.555 47.8187 33.8784 52.6575 33.04 56.9097C32.7442 58.2783 32.6948 58.3271 30.1799 57.985C25.8896 57.4474 25.8896 57.4474 25.8896 54.9547C25.8896 49.7249 28.7991 42.6866 32.6948 38.5321C35.5057 35.5995 37.7741 34.0844 40.9795 33.1557C43.2972 32.4714 49.0669 32.2271 49.0669 32.7647ZM62.5788 33.2046C62.5295 33.5467 62.4802 34.0844 62.4802 34.4754C62.4309 34.8175 61.6419 35.404 60.8035 35.795C53.1106 38.8254 46.5026 46.0103 42.7548 55.3946C42.311 56.421 41.7192 56.812 39.5987 57.2519C35.4071 58.1805 35.3085 58.0828 36.0482 54.3193C37.8728 45.6192 45.6643 36.4304 53.9489 33.2535C56.5626 32.2759 62.6774 32.2271 62.5788 33.2046ZM60.6556 39.5097C60.1131 41.758 57.105 46.2058 54.3435 48.9428C51.7298 51.5333 46.1574 55.4923 45.7136 55.0524C45.1218 54.5148 48.919 48.1608 51.434 45.4237C53.6531 43.0777 59.8173 38.3366 60.8528 38.19C60.9515 38.19 60.8528 38.7765 60.6556 39.5097Z" fill="black"/>
<path d="M23.128 3.53651C24.3609 4.51404 24.4102 4.66067 24.4102 10.1348C24.4102 15.8534 23.9664 17.6618 22.6842 17.6618C22.0924 17.6618 21.9445 16.8309 21.9445 13.5073C21.9445 9.74383 21.8459 9.35282 21.0075 9.35282C19.9226 9.35282 19.6268 10.5259 19.7254 14.6804C19.7254 16.7821 19.5775 17.6618 19.1336 17.6618C17.9501 17.6618 17.5063 15.7068 17.5063 10.1348C17.5063 4.66067 17.5556 4.51404 18.7884 3.53651C19.5281 2.94999 20.4651 2.5101 20.9582 2.5101C21.4514 2.5101 22.3883 2.94999 23.128 3.53651Z" fill="#429F3A"/>
<rect x="75.4497" y="2.51233" width="3.32866" height="55.7193" rx="1.66433" fill="black"/>
</svg>
